<svg id="Layer_1" data-name="Layer 1" xmlns="http://www.w3.org/2000/svg" viewBox="0 0 157.72 124.15"><defs><style>.cls-1{fill:#6a69b0;}.cls-2{fill:#fff;}.cls-3{fill:none;stroke:#fff;stroke-miterlimit:10;}</style></defs><title>Scifi_logo_boxless</title><path class="cls-1" d="M115.5,16.05h30.71a2.21,2.21,0,0,1,1.23.3,1.5,1.5,0,0,1,.71,1.08,11,11,0,0,1,.11,1.68,6.07,6.07,0,0,0,0,.71,1.12,1.12,0,0,1-.11.63,1.5,1.5,0,0,1-1.31,1.31,23.26,23.26,0,0,1-2.5.11H125.65q-1.19,0-2.54,0a3.12,3.12,0,0,0-2,.48,1.82,1.82,0,0,0-.71,1.57q0,1.12,0,2.24v7.39q0,.6,0,1.49a5.3,5.3,0,0,0,.11,1.49v.6q.15.45.26.86a1,1,0,0,0,.49.63,3.64,3.64,0,0,0,2.09.41q1.42,0,2.46,0h13.43q.67,0,1.46,0t1.57,0a8,8,0,0,1,1.42.19,1.29,1.29,0,0,1,.86.52,1.69,1.69,0,0,1,.37,1.12v2.31a1.49,1.49,0,0,1-.15.67q-.3.75-.82.82a1.25,1.25,0,0,1-.56.15,3.4,3.4,0,0,0-.63.07,1.76,1.76,0,0,1-.63,0,5.77,5.77,0,0,0-.63,0H126.17q-1.19,0-2.8,0a3.65,3.65,0,0,0-2.28.48,1.81,1.81,0,0,0-.56.93,6.12,6.12,0,0,0-.22,1.46q0,.82,0,1.68c0,.57,0-2.51,0-2.07v2.27q0,1.27.07,2.76a3.26,3.26,0,0,1-.52,2.24c-.15.2-.33.22-.67.34a2.75,2.75,0,0,1-.9.19h-1.42c-.7,0-1.34,0-1.94-.07a1.48,1.48,0,0,1-1.27-.75,2.2,2.2,0,0,1-.3-1.23V20.31q0-.82,0-1.83a2.79,2.79,0,0,1,.34-1.6,2.2,2.2,0,0,1,1.12-.75.51.51,0,0,1,.34,0A.5.5,0,0,0,115.5,16.05Z" transform="translate(-4.24 -14.89)"/><path class="cls-1" d="M156.4,23.29a2,2,0,0,1-.63-1.6q0-1.16,0-2.28V18.14a2.49,2.49,0,0,1,.22-1.12,1.92,1.92,0,0,1,1.19-.9.51.51,0,0,1,.34,0,.5.5,0,0,0,.34,0q1.27,0,2.39.07a1.6,1.6,0,0,1,1.49.9,2.4,2.4,0,0,1,.22,1.08v1.31q0,1.34,0,2.54a1.56,1.56,0,0,1-1,1.57,2.09,2.09,0,0,1-.78.15h-2.43A2.12,2.12,0,0,1,156.4,23.29Zm5.52,42.32q0,.75,0,1.53a1.74,1.74,0,0,1-.34,1.23,1,1,0,0,1-.67.56l-1,.26h-1.12a10.92,10.92,0,0,1-1.68-.11,1.49,1.49,0,0,1-1.08-.71,2,2,0,0,1-.3-1.16V32.66a1.86,1.86,0,0,1,.37-1.23.89.89,0,0,1,.6-.45,6.67,6.67,0,0,0,.82-.22,1.76,1.76,0,0,1,.33,0,.5.5,0,0,0,.34,0q1,0,2,0a1.58,1.58,0,0,1,1.38.63,1.75,1.75,0,0,1,.37,1.16v33Z" transform="translate(-4.24 -14.89)"/><path class="cls-1" d="M114.06,68.64a2.58,2.58,0,0,1-.71-2q0-1.43,0-2.82V62.26a3.37,3.37,0,0,1,.25-1.39,2.2,2.2,0,0,1,1.34-1.11.53.53,0,0,1,.38,0,.51.51,0,0,0,.38,0q1.42,0,2.68.09A1.79,1.79,0,0,1,120,60.87a3.24,3.24,0,0,1,.25,1.34v1.62q0,1.67,0,3.15a2,2,0,0,1-1.13,1.94,2.14,2.14,0,0,1-.88.19h-2.72A2.21,2.21,0,0,1,114.06,68.64Z" transform="translate(-4.24 -14.89)"/><path class="cls-2" d="M108.06,100.31a2.58,2.58,0,0,1-.71-2q0-1.43,0-2.82V93.92a3.37,3.37,0,0,1,.25-1.39,2.2,2.2,0,0,1,1.34-1.11.53.53,0,0,1,.38,0,.51.51,0,0,0,.38,0q1.42,0,2.68.09A1.79,1.79,0,0,1,114,92.54a3.24,3.24,0,0,1,.25,1.34V95.5q0,1.67,0,3.15a2,2,0,0,1-1.13,1.94,2.14,2.14,0,0,1-.88.19h-2.72A2.21,2.21,0,0,1,108.06,100.31Z" transform="translate(-4.24 -14.89)"/><path class="cls-2" d="M24.09,14.91a27.28,27.28,0,0,1,7.54.67A19.25,19.25,0,0,1,37.45,18c.3.2.58.37.86.52a3.48,3.48,0,0,1,.78.6,2.66,2.66,0,0,0,.3.26,3,3,0,0,1,.3.26c.1.1.22.21.37.34a2,2,0,0,1,.37.41l.6.75.6.75a3.81,3.81,0,0,1,.49.78,7.43,7.43,0,0,0,.41.78,8.85,8.85,0,0,1,1,2.35q.37,1.31.75,2.72a4.43,4.43,0,0,1,.11,1.31A2.39,2.39,0,0,1,44.17,31a1.55,1.55,0,0,1-1.19.6q-.82.08-1.72.07h-.67a2.43,2.43,0,0,1-.6-.07,3.4,3.4,0,0,0-.63-.07,1.24,1.24,0,0,1-.56-.15,1.87,1.87,0,0,1-.3-.19,2.66,2.66,0,0,1-.3-.26,4.42,4.42,0,0,1-.63-1.64A6.66,6.66,0,0,0,37,27.52,9.62,9.62,0,0,0,33.42,23a12.42,12.42,0,0,0-4.11-1.79,3.89,3.89,0,0,0-.9-.19,3.76,3.76,0,0,1-.9-.19h-.6a4.94,4.94,0,0,0-1.19-.15H24.54A15.61,15.61,0,0,0,18,21.92a9.74,9.74,0,0,0-2.69,1.6A6.25,6.25,0,0,0,13.56,26a4.49,4.49,0,0,0-.41,1.23c-.07.42-.16.88-.26,1.38A4.55,4.55,0,0,0,12.78,30,5.62,5.62,0,0,0,13,31.25a7.08,7.08,0,0,0,1.31,2.61,8.68,8.68,0,0,0,2.2,1.72,12.65,12.65,0,0,0,3.66,1.57q2,.52,4.18,1.12a12.34,12.34,0,0,0,1.34.22,6.5,6.5,0,0,1,1.34.3,18.78,18.78,0,0,0,2.2.48,12.5,12.5,0,0,1,2.2.56l.52.11.52.11q.67.15,1.34.34t1.34.41q1.49.52,2.91,1.12a17.43,17.43,0,0,1,2.69,1.42,15.54,15.54,0,0,1,2.95,2.43A11.36,11.36,0,0,1,45.81,49a7.23,7.23,0,0,1,.45,1.34c.1.45.2.92.3,1.42a2.32,2.32,0,0,1,.15.86,2.9,2.9,0,0,0,.15.93v1.49a2.41,2.41,0,0,0-.08.6v.6a6.57,6.57,0,0,0-.19,1.23,4.23,4.23,0,0,1-.26,1.23q-.37,1.12-.82,2.16a9.39,9.39,0,0,1-1.12,1.94,11.85,11.85,0,0,1-3.21,3.28A28.42,28.42,0,0,1,37,68.5q-.75.3-1.46.52T34,69.47a7.91,7.91,0,0,1-1.72.41,15.12,15.12,0,0,0-1.79.34,4.07,4.07,0,0,1-.78.07,4,4,0,0,0-.78.07c-.3,0-.6,0-.9,0s-.6,0-.9,0a7.87,7.87,0,0,1-2.16,0h-.82a7.53,7.53,0,0,0-1.49-.15,6.55,6.55,0,0,1-1.42-.15,5,5,0,0,0-.6-.11L20,69.91l-1.53-.3A8.9,8.9,0,0,1,17,69.17a21.2,21.2,0,0,1-6.16-3.06,16.6,16.6,0,0,1-4.29-4.85,12.5,12.5,0,0,1-1-2q-.41-1-.78-2.24a3.75,3.75,0,0,1-.19-.9,2.89,2.89,0,0,0-.19-.82,7,7,0,0,1-.15-1.53,1.7,1.7,0,0,1,.37-1.23,1.59,1.59,0,0,1,1.23-.6c.57,0,1.13-.07,1.68-.07h.63a1.82,1.82,0,0,1,.56.07,1.7,1.7,0,0,0,.6,0,.87.87,0,0,1,.52.11,1.64,1.64,0,0,1,.67.6,1.84,1.84,0,0,1,.26.78,3.77,3.77,0,0,0,.19.86c.1.35.19.7.26,1a5.59,5.59,0,0,0,.34,1,11.26,11.26,0,0,0,3.81,5.08A11.57,11.57,0,0,0,18.12,63q1.49.6,3.21,1.12a9.8,9.8,0,0,0,1.19.22l1.19.15a2.42,2.42,0,0,1,.37,0,2.65,2.65,0,0,0,.45,0,1.67,1.67,0,0,0,.71,0,1.41,1.41,0,0,1,.78.07,3.72,3.72,0,0,0,.86.07,2.51,2.51,0,0,0,.93-.15h.52a3.86,3.86,0,0,1,.75-.07,3.76,3.76,0,0,0,.75-.07.81.81,0,0,1,.41,0,.78.78,0,0,0,.48-.11q.6-.15,1.27-.26a6.79,6.79,0,0,0,1.27-.34,18.41,18.41,0,0,0,3.47-1.9,6.94,6.94,0,0,0,2.35-2.95,10.88,10.88,0,0,0,.37-1.19l.3-1.19a5.89,5.89,0,0,0,.15-1.42,5,5,0,0,0-.15-1.34,1.74,1.74,0,0,1-.15-.63,1.26,1.26,0,0,0-.15-.56,6.51,6.51,0,0,0-1.19-2.13,10.33,10.33,0,0,0-1.79-1.6A13.71,13.71,0,0,0,33,47a39,39,0,0,0-4.07-1.16q-2.13-.48-4.37-.93t-4.33-1q-1.19-.37-2.39-.63a12.36,12.36,0,0,1-2.24-.71.59.59,0,0,0-.22-.07.56.56,0,0,1-.22-.07l-1.49-.6A7.65,7.65,0,0,1,12.22,41a22.88,22.88,0,0,1-3.13-2.28,8.49,8.49,0,0,1-2.24-3.17,4.81,4.81,0,0,1-.52-1.46c-.1-.52-.22-1.06-.37-1.6a3.28,3.28,0,0,0,0-.52,2.56,2.56,0,0,1,0-.45,6.64,6.64,0,0,1-.07-2.28,12.52,12.52,0,0,1,.37-2.13q.22-.82.41-1.57a8.63,8.63,0,0,1,.49-1.42,12,12,0,0,1,2.69-3.77,24.49,24.49,0,0,1,3.66-2.8.67.67,0,0,1,.37-.19.66.66,0,0,0,.37-.19A21.07,21.07,0,0,1,18,15.8l1.12-.26,1.12-.26a5.4,5.4,0,0,1,1.31-.15A5.36,5.36,0,0,0,22.82,15a1.52,1.52,0,0,1,.67,0C23.79,15,24,15,24.09,14.91Z" transform="translate(-4.24 -14.89)"/><path class="cls-2" d="M69.76,29.84A21.57,21.57,0,0,1,79,31.44a13.43,13.43,0,0,1,5.86,5,14.73,14.73,0,0,1,1.64,3.66,4.06,4.06,0,0,1,.22,1,2.39,2.39,0,0,1-.07,1,2,2,0,0,1-.75.67.6.6,0,0,1-.45.11,1.31,1.31,0,0,0-.52,0,1.6,1.6,0,0,1-.6,0,4.91,4.91,0,0,0-.6,0q-.82,0-1.57,0a2.32,2.32,0,0,1-1.27-.41,2.27,2.27,0,0,1-.82-1.27,5.34,5.34,0,0,0-.6-1.42,8.61,8.61,0,0,0-2.91-3.06,7.65,7.65,0,0,0-1.27-.63q-.67-.26-1.42-.49a11.36,11.36,0,0,0-2.76-.34,8.53,8.53,0,0,0-2.84.34,8.53,8.53,0,0,1-1,.22,8.84,8.84,0,0,0-1,.22,11.39,11.39,0,0,0-3.43,2.24,9.89,9.89,0,0,0-2.31,3.36,13,13,0,0,0-.52,1.38q-.22.71-.45,1.53l-.45,2a2.88,2.88,0,0,0,0,.82,1.8,1.8,0,0,1-.11.82v.6a5.62,5.62,0,0,0-.11,1,2,2,0,0,0,.11,1,1.92,1.92,0,0,1,0,.75,1.85,1.85,0,0,0,0,.75,5,5,0,0,1,.07,1q.15.6.26,1.27c.07.45.16.87.26,1.27A20.62,20.62,0,0,0,61.52,60a9.71,9.71,0,0,0,3,3,13.75,13.75,0,0,0,1.38.67q.71.3,1.53.6a3.2,3.2,0,0,0,.6.07,3.3,3.3,0,0,1,.6.07,2.6,2.6,0,0,0,.75.07h.82c0,.05.1.07.3.07a.62.62,0,0,1,.37,0,.91.91,0,0,0,.45,0,2.87,2.87,0,0,1,1-.11,2.82,2.82,0,0,0,1-.11,13.06,13.06,0,0,0,3.36-1.53,8.22,8.22,0,0,0,2.39-2.43,10.18,10.18,0,0,0,.67-1.27l.6-1.34q.15-.6.34-1.16a1.85,1.85,0,0,1,.71-.93,1.71,1.71,0,0,1,.9-.34,12.67,12.67,0,0,1,1.46-.15,9.93,9.93,0,0,1,1.49,0,2.1,2.1,0,0,1,1,.3,1.32,1.32,0,0,1,.56.9,3.15,3.15,0,0,1,0,1.27l-.71,2.13a12.51,12.51,0,0,1-.86,2,15.54,15.54,0,0,1-2.8,4,12.76,12.76,0,0,1-4.07,2.76,6.93,6.93,0,0,1-1.27.49l-1.42.41a5.58,5.58,0,0,1-1.64.34,12,12,0,0,0-1.64.19.85.85,0,0,1-.6.07,1.2,1.2,0,0,0-.6,0h-.67c-.4,0-.78,0-1.16,0a2.64,2.64,0,0,1-1-.11H68l-1.79-.22q-1-.3-1.87-.52a10,10,0,0,1-1.72-.6,15.8,15.8,0,0,1-4.44-2.84,19.93,19.93,0,0,1-3.25-4,8.35,8.35,0,0,1-.67-1.34l-.6-1.49a6.8,6.8,0,0,1-.52-1.72c-.1-.6-.22-1.19-.37-1.79a2.44,2.44,0,0,1-.08-.6,2.5,2.5,0,0,0-.07-.6,2.45,2.45,0,0,1-.11-1,2.51,2.51,0,0,0-.11-1v-.75a7.3,7.3,0,0,1,0-2.09,2.15,2.15,0,0,0,0-.67,1.6,1.6,0,0,1,0-.6,3,3,0,0,0,.11-1,2.47,2.47,0,0,1,.11-1q.3-1.27.52-2.54a12.12,12.12,0,0,1,.67-2.39,20.06,20.06,0,0,1,3.81-6.27,16.93,16.93,0,0,1,6.12-4,6.88,6.88,0,0,1,1.79-.52q1-.15,2-.37.52-.07,1-.11T69.76,29.84Z" transform="translate(-4.24 -14.89)"/><path class="cls-2" d="M95.66,23.37a2.12,2.12,0,0,0,1.27.37h2.43a2.09,2.09,0,0,0,.78-.15,1.56,1.56,0,0,0,1-1.57q0-1.19,0-2.54V18.18A2.4,2.4,0,0,0,101,17.1a1.6,1.6,0,0,0-1.49-.9q-1.12-.07-2.39-.07a.5.5,0,0,1-.34,0,.51.51,0,0,0-.34,0,1.92,1.92,0,0,0-1.19.9A2.49,2.49,0,0,0,95,18.22v1.27q0,1.12,0,2.28A2,2,0,0,0,95.66,23.37Z" transform="translate(-4.24 -14.89)"/><path class="cls-2" d="M81.34,51.47a2.92,2.92,0,0,0,1.27.25H85a3,3,0,0,0,.78-.1q1-.25,1-1t0-1.69V48a1.17,1.17,0,0,0-.22-.72,1.8,1.8,0,0,0-1.49-.6q-1.12,0-2.39,0a.73.73,0,0,1-.34,0,.75.75,0,0,0-.34,0,2,2,0,0,0-1.19.6,1.21,1.21,0,0,0-.22.75v.85q0,.75,0,1.52A1.16,1.16,0,0,0,81.34,51.47Z" transform="translate(-4.24 -14.89)"/><path class="cls-2" d="M101.19,65.69v-33a1.75,1.75,0,0,0-.37-1.16,1.58,1.58,0,0,0-1.38-.63q-1,0-2,0a.5.5,0,0,1-.34,0,1.76,1.76,0,0,0-.33,0,6.67,6.67,0,0,1-.82.22.89.89,0,0,0-.6.45A1.86,1.86,0,0,0,95,32.74V67.29a2,2,0,0,0,.3,1.16,1.49,1.49,0,0,0,1.08.71,10.92,10.92,0,0,0,1.68.11h1.12l1-.26a1,1,0,0,0,.67-.56,1.74,1.74,0,0,0,.34-1.23Q101.18,66.43,101.19,65.69Z" transform="translate(-4.24 -14.89)"/><polyline class="cls-3" points="93.89 8.02 93.85 14.44 93.79 20.86"/><path class="cls-2" d="M92.26,91.3q1.07,0,2.34,0a3.63,3.63,0,0,1,1.94.37,2.12,2.12,0,0,1,.84,1.27q.23.87.5,1.61.54,1.34.94,2.71t.94,2.71a3.92,3.92,0,0,1,.2.67l.13.67a25.09,25.09,0,0,1,.84,2.38q.37,1.24.77,2.51l1.84,5.43q.9,2.68,1.84,5.43.47,1.34.84,2.71a23.8,23.8,0,0,0,.9,2.71,5.71,5.71,0,0,1,.23.74c.07.27.14.54.23.8q.74,1.94,1.34,4a14.39,14.39,0,0,1,.47,1.37,3.77,3.77,0,0,0,.6,1.24,5.83,5.83,0,0,0,.47.4,1,1,0,0,0,1-.7,11.73,11.73,0,0,1,.47-1.24,25.71,25.71,0,0,0,1.21-3.55A32.52,32.52,0,0,1,114.3,122q.4-1.07.7-2.14t.7-2.14a14.52,14.52,0,0,0,.57-1.64,14.18,14.18,0,0,1,.57-1.64q1-2.81,1.88-5.7t1.94-5.69a1.13,1.13,0,0,0,.13-.5,1.12,1.12,0,0,1,.13-.5q.4-1,.74-2.08t.67-2.08q.4-1,.7-2t.7-2.11q.2-.6.44-1.17a1.9,1.9,0,0,1,.77-.9,1.68,1.68,0,0,1,1.11-.33H129l.94.23a.77.77,0,0,1,.54.64,1.46,1.46,0,0,0,0,.3.47.47,0,0,1,0,.3,8.91,8.91,0,0,1-.37,1.31l-.44,1.17a6.7,6.7,0,0,0-.44,1.11q-.17.57-.37,1.11a17.16,17.16,0,0,0-.7,2,17,17,0,0,1-.7,2,1.07,1.07,0,0,0-.13.47,1.08,1.08,0,0,1-.13.47,16.05,16.05,0,0,0-.9,2.41,16.31,16.31,0,0,1-.91,2.41,1.13,1.13,0,0,0-.13.5.77.77,0,0,1-.13.44q-.34.87-.64,1.78t-.64,1.78a1,1,0,0,0-.17.44,1.67,1.67,0,0,1-.17.5q-1,2.55-1.84,5.16t-1.84,5.16l-.2.6q-.27.74-.5,1.44t-.5,1.44q-.34.8-.6,1.64t-.6,1.64l-.27.8-.27.8q-.4,1-.74,2.08t-.74,2q-.34.87-.64,1.84a2.64,2.64,0,0,1-1,1.44,2.35,2.35,0,0,1-.6.2l-.74.13h-1.88q-.8,0-1.74,0a2.58,2.58,0,0,1-1.47-.3,1.64,1.64,0,0,1-.8-1,12.61,12.61,0,0,0-.54-1.37q-.4-1-.74-2.11a20,20,0,0,0-.8-2.18,1.64,1.64,0,0,1-.17-.54,1.68,1.68,0,0,0-.17-.54q-.54-1.34-1-2.71t-1-2.65a2.41,2.41,0,0,1-.17-.6,1.71,1.71,0,0,0-.17-.54q-.34-.94-.67-1.84t-.67-1.84a1.64,1.64,0,0,1-.17-.54,1.68,1.68,0,0,0-.17-.54q-.34-.87-.64-1.78t-.64-1.84a9.33,9.33,0,0,1-.54-1.51,9.4,9.4,0,0,0-.54-1.51q-.74-1.87-1.34-3.85a37.84,37.84,0,0,0-1.41-3.85,7.9,7.9,0,0,1-.44-1.24,12.21,12.21,0,0,0-.37-1.17,3.72,3.72,0,0,1-.3-.84,3.78,3.78,0,0,0-.3-.84q-.6-1.54-1.11-3.15T91.46,95q-.13-.47-.3-.94a10.29,10.29,0,0,1-.3-1A1.47,1.47,0,0,1,90.79,92a1.15,1.15,0,0,1,.94-.6.38.38,0,0,1,.27,0A.37.37,0,0,0,92.26,91.3Z" transform="translate(-4.24 -14.89)"/><path class="cls-2" d="M68.53,104.58H62.61a4.85,4.85,0,0,1,0,.6c0,.55,0,1,0,1.45V136c0,.49,0,.95,0,1.36a1.76,1.76,0,0,0,.41,1.08,1.54,1.54,0,0,0,1.24.4H66q.51,0,1,0a2.81,2.81,0,0,0,.77-.14,1.18,1.18,0,0,0,.73-1,11.22,11.22,0,0,0,.1-1.53v-29.5c0-.42,0-.89-.06-1.42A4.11,4.11,0,0,1,68.53,104.58Z" transform="translate(-4.24 -14.89)"/><path class="cls-2" d="M62.67,137.1h5.91a4.85,4.85,0,0,1,0-.6c0-.55,0-1,0-1.45V105.66c0-.49,0-.95,0-1.36a1.76,1.76,0,0,0-.41-1.08,1.54,1.54,0,0,0-1.24-.4H65.15q-.51,0-1,0a2.81,2.81,0,0,0-.77.14,1.18,1.18,0,0,0-.73,1,11.22,11.22,0,0,0-.1,1.53V135c0,.42,0,.89.06,1.42A4.11,4.11,0,0,1,62.67,137.1Z" transform="translate(-4.24 -14.89)"/><path class="cls-2" d="M47.6,93.07l0,6.22a5.64,5.64,0,0,1,.67,0c.61,0,1.14,0,1.6,0l6.22,0,20.68-.11,5.59,0c.55,0,1,0,1.51,0a2,2,0,0,0,1.19-.44,1.57,1.57,0,0,0,.43-1.31V95.48q0-.54,0-1a2.83,2.83,0,0,0-.16-.8,1.3,1.3,0,0,0-1.07-.76,13,13,0,0,0-1.7-.09l-6.66,0L56,93l-6.1,0c-.46,0-1,0-1.57.08A4.78,4.78,0,0,1,47.6,93.07Z" transform="translate(-4.24 -14.89)"/><path class="cls-2" d="M83.59,99l0-6.22a5.64,5.64,0,0,1-.67,0c-.61,0-1.14,0-1.6,0l-6.22,0L54.38,93l-5.59,0c-.55,0-1,0-1.51,0a2,2,0,0,0-1.19.44,1.57,1.57,0,0,0-.43,1.31v1.84q0,.54,0,1a2.83,2.83,0,0,0,.16.8,1.3,1.3,0,0,0,1.07.76,13,13,0,0,0,1.7.09l6.66,0,19.86-.11,6.1,0c.46,0,1,0,1.57-.08A4.78,4.78,0,0,1,83.59,99Z" transform="translate(-4.24 -14.89)"/></svg>